<svg width="60" height="60" viewBox="0 0 60 60" fill="none" xmlns="http://www.w3.org/2000/svg">
<g id="adobe-indesign-logo">
<g clip-path="url(#clip0_1_441)">
<g id="Group 299">
<path id="Vector" d="M3.82876 -0.0155266C3.92036 -0.0158023 4.01196 -0.0160779 4.10633 -0.0163619C4.41512 -0.0171458 4.7239 -0.0170922 5.03269 -0.0170442C5.25558 -0.0174307 5.47847 -0.0178673 5.70136 -0.0183498C6.31532 -0.0195249 6.92929 -0.0199597 7.54326 -0.0202704C8.20486 -0.0207276 8.86647 -0.02185 9.52808 -0.0228735C11.1266 -0.0251903 12.725 -0.0263693 14.3235 -0.0274119C15.076 -0.0279254 15.8285 -0.0285544 16.581 -0.0291684C19.0819 -0.0311621 21.5828 -0.0328636 24.0838 -0.0337093C24.2455 -0.0337649 24.4073 -0.0338207 24.569 -0.0338766C24.6893 -0.0339181 24.6893 -0.0339181 24.8121 -0.0339605C25.2184 -0.0341013 25.6248 -0.0342437 26.0312 -0.0343873C26.1118 -0.0344155 26.1925 -0.0344436 26.2756 -0.0344726C28.8902 -0.0353975 31.5047 -0.0381433 34.1193 -0.0419525C36.8838 -0.0459726 39.6482 -0.0482816 42.4126 -0.0486676C43.9195 -0.0489215 45.4264 -0.049949 46.9332 -0.0529404C48.2164 -0.0554818 49.4996 -0.0564288 50.7827 -0.055288C51.4375 -0.0547548 52.0922 -0.0549816 52.7469 -0.0572523C53.3465 -0.0593136 53.946 -0.0592055 54.5456 -0.0573815C54.7623 -0.0571023 54.979 -0.0576135 55.1957 -0.059002C56.662 -0.0678139 57.8604 0.0136129 58.9733 1.06359C59.7234 1.88719 60.0356 2.74579 60.0293 3.85867C60.0297 3.95054 60.0301 4.04241 60.0305 4.13706C60.0316 4.44536 60.031 4.75364 60.0305 5.06195C60.0309 5.28504 60.0314 5.50813 60.0321 5.73122C60.0335 6.34466 60.0335 6.95809 60.0332 7.57153C60.0332 8.23297 60.0345 8.89442 60.0356 9.55586C60.0375 10.8519 60.0382 12.148 60.0383 13.444C60.0384 14.4974 60.0389 15.5509 60.0396 16.6043C60.0413 19.1042 60.0428 21.6042 60.0427 24.1041C60.0427 24.1841 60.0427 24.264 60.0427 24.3464C60.0426 24.7516 60.0426 25.1568 60.0426 25.562C60.0426 25.6827 60.0426 25.6827 60.0426 25.8059C60.0426 25.9686 60.0426 26.1314 60.0425 26.2941C60.0424 28.8259 60.0442 31.3576 60.0474 33.8894C60.051 36.734 60.053 39.5786 60.0528 42.4232C60.0527 43.9293 60.0533 45.4354 60.0559 46.9415C60.058 48.2238 60.0585 49.5061 60.0569 50.7884C60.0561 51.4426 60.0561 52.0969 60.0582 52.7511C60.06 53.3503 60.0597 53.9493 60.0576 54.5485C60.0573 54.765 60.0577 54.9816 60.059 55.1981C60.0676 56.7276 59.9523 57.9088 58.8616 59.065C58.0744 59.7449 57.2052 60.018 56.1839 60.0159C56.0925 60.0162 56.001 60.0165 55.9068 60.0168C55.5977 60.0176 55.2887 60.0175 54.9797 60.0174C54.7569 60.0178 54.5341 60.0183 54.3113 60.0188C53.6971 60.0199 53.0828 60.0204 52.4686 60.0207C51.8069 60.0211 51.1452 60.0223 50.4835 60.0233C48.8845 60.0256 47.2854 60.0268 45.6864 60.0278C44.9337 60.0283 44.1811 60.029 43.4284 60.0296C40.927 60.0316 38.4255 60.0333 35.9241 60.0341C35.7623 60.0342 35.6005 60.0342 35.4387 60.0343C35.3585 60.0343 35.2782 60.0343 35.1955 60.0344C34.789 60.0345 34.3825 60.0346 33.9759 60.0348C33.8952 60.0348 33.8146 60.0349 33.7314 60.0349C31.1161 60.0358 28.5007 60.0386 25.8853 60.0424C23.1203 60.0464 20.3554 60.0487 17.5904 60.0491C16.0831 60.0493 14.5759 60.0504 13.0686 60.0533C11.785 60.0559 10.5014 60.0568 9.21781 60.0557C8.56284 60.0552 7.9079 60.0554 7.25293 60.0577C6.65315 60.0597 6.0534 60.0596 5.45362 60.0578C5.23682 60.0575 5.02002 60.058 4.80322 60.0594C3.26565 60.0686 2.09376 59.9523 0.934342 58.8544C0.20113 58.0315 -0.0187982 57.2497 -0.0165985 56.1706C-0.0168741 56.079 -0.0171495 55.9874 -0.0174335 55.893C-0.0182174 55.5842 -0.0181637 55.2754 -0.0181157 54.9666C-0.0185023 54.7438 -0.018939 54.5209 -0.0194215 54.298C-0.0205966 53.684 -0.0210317 53.07 -0.0213424 52.4561C-0.0217995 51.7945 -0.022922 51.1329 -0.0239455 50.4713C-0.0262623 48.8728 -0.0274412 47.2743 -0.0284838 45.6758C-0.0289973 44.9234 -0.0296261 44.1709 -0.0302402 43.4184C-0.0322338 40.9174 -0.0339355 38.4165 -0.0347812 35.9156C-0.0348368 35.7538 -0.0348924 35.5921 -0.0349483 35.4303C-0.0349761 35.3501 -0.0350039 35.2699 -0.0350324 35.1873C-0.0351732 34.7809 -0.0353157 34.3745 -0.0354593 33.9682C-0.0354875 33.8875 -0.0355153 33.8069 -0.0355442 33.7238C-0.0364692 31.1092 -0.0392149 28.4946 -0.043024 25.88C-0.0470441 23.1156 -0.0493534 20.3511 -0.0497394 17.5867C-0.0499933 16.0798 -0.0510208 14.573 -0.0540121 13.0661C-0.0565535 11.7829 -0.0575007 10.4998 -0.05636 9.21659C-0.0558267 8.56186 -0.0560536 7.90716 -0.0583242 7.25243C-0.0603856 6.65286 -0.0602774 6.05334 -0.0584534 5.45378C-0.0581743 5.23706 -0.0586854 5.02034 -0.0600739 4.80363C-0.0693127 3.2663 0.0472416 2.09464 1.14491 0.935414C1.96779 0.202201 2.7496 -0.0177263 3.82876 -0.0155266ZM39.1398 15.2346C39.1398 18.8311 39.1398 22.4275 39.1398 26.133C38.9464 25.9397 38.753 25.7463 38.5538 25.5471C36.9208 24.0676 34.9928 23.7885 32.8695 23.8846C30.7395 24.0439 28.7386 25.1544 27.3226 26.729C25.0085 29.4353 24.6787 32.7732 24.8429 36.2111C25.078 38.6909 26.2633 41.2911 28.1864 42.9055C30.0614 44.3279 32.1033 44.97 34.4596 44.6926C36.3135 44.3745 38.0474 43.5493 39.1681 41.9845C39.2766 41.8183 39.384 41.6515 39.4913 41.4846C39.5687 41.4459 39.646 41.4072 39.7257 41.3674C39.8417 42.8176 39.8417 42.8176 39.9601 44.2971C41.7776 44.2971 43.5952 44.2971 45.4679 44.2971C45.4493 43.6627 45.4307 43.0283 45.4116 42.3747C45.3395 39.6892 45.3251 37.004 45.3151 34.3177C45.3125 33.6435 45.3093 32.9692 45.3062 32.295C45.3005 31.0264 45.2952 29.7578 45.2901 28.4892C45.2842 27.0415 45.2778 25.5938 45.2713 24.1461C45.2581 21.1756 45.2457 18.2051 45.2335 15.2346C43.2226 15.2346 41.2116 15.2346 39.1398 15.2346ZM14.5304 16.758C14.5304 25.8459 14.5304 34.9338 14.5304 44.2971C16.58 44.2971 18.6296 44.2971 20.7413 44.2971C20.7413 35.2092 20.7413 26.1213 20.7413 16.758C18.6917 16.758 16.6421 16.758 14.5304 16.758Z" fill="#0039C8"/>
<path id="Vector_2" d="M38.0627 29.6052C38.9313 30.5367 39.1568 31.6232 39.1636 32.8608C39.1643 32.9558 39.1649 33.0507 39.1656 33.1485C39.1667 33.3493 39.1675 33.55 39.1679 33.7507C39.1691 34.054 39.1727 34.3571 39.1764 34.6603C39.1864 36.2196 39.0823 37.6223 37.9629 38.8081C37.0344 39.687 36.2982 39.8999 35.0309 39.8935C34.3532 39.8703 33.8519 39.73 33.2804 39.3748C33.1571 39.3047 33.0339 39.2346 32.9069 39.1624C31.6904 38.2162 31.2007 36.8662 31.0062 35.3776C30.8151 33.4576 31.098 31.6013 32.2257 29.9998C32.291 29.8983 32.3562 29.7967 32.4235 29.6922C33.9891 28.0843 36.4279 28.1293 38.0627 29.6052Z" fill="#0039C8"/>
</g>
</g>
</g>
<defs>
<clipPath id="clip0_1_441">
<rect width="60" height="60" rx="8" fill="white"/>
</clipPath>
</defs>
</svg>
