<svg width="60" height="60" viewBox="0 0 60 60" fill="none" xmlns="http://www.w3.org/2000/svg">
<g id="adobe-photoshop-logo">
<g clip-path="url(#clip0_1_446)">
<g id="Group 297">
<path id="Vector" d="M5.0095 -0.0593388C5.23397 -0.0598793 5.45843 -0.0606241 5.68289 -0.0615547C6.29795 -0.0635082 6.91298 -0.0625458 7.52804 -0.0610924C8.19203 -0.060031 8.85602 -0.0616693 9.52001 -0.062958C10.8201 -0.0650419 12.1201 -0.0645924 13.4202 -0.0632333C14.4769 -0.0621745 15.5335 -0.0620312 16.5901 -0.0625414C16.7405 -0.0626132 16.891 -0.062685 17.0459 -0.062759C17.3515 -0.0629089 17.6571 -0.0630609 17.9626 -0.0632149C20.7459 -0.0645134 23.5292 -0.0631671 26.3126 -0.0607106C28.8523 -0.0584862 31.3919 -0.0586852 33.9316 -0.0609267C36.7864 -0.0634378 39.6412 -0.0644227 42.4959 -0.0629834C42.8004 -0.0628341 43.1048 -0.0626868 43.4092 -0.0625414C43.6339 -0.0624329 43.6339 -0.0624329 43.8631 -0.0623222C44.9184 -0.0619176 45.9738 -0.0626005 47.0291 -0.0637037C48.3152 -0.0650186 49.6014 -0.064662 50.8875 -0.0621658C51.5437 -0.0609343 52.1998 -0.0604509 52.856 -0.0620014C53.4568 -0.0633997 54.0576 -0.062628 54.6584 -0.0601369C54.8756 -0.0596139 55.0928 -0.0598782 55.3099 -0.0610162C56.7728 -0.0680931 57.975 0.00701053 59.0906 1.05487C59.8071 1.87016 60.0176 2.65493 60.0154 3.71628C60.0157 3.80828 60.016 3.90027 60.0162 3.99506C60.017 4.30519 60.017 4.61532 60.0169 4.92545C60.0173 5.14931 60.0177 5.37316 60.0182 5.59702C60.0194 6.21366 60.0198 6.8303 60.0202 7.44694C60.0206 8.11142 60.0217 8.7759 60.0228 9.44038C60.0251 11.0458 60.0263 12.6512 60.0273 14.2567C60.0278 15.0124 60.0284 15.7682 60.0291 16.5239C60.031 19.0357 60.0327 21.5475 60.0336 24.0593C60.0336 24.2218 60.0337 24.3842 60.0338 24.5467C60.0338 24.6675 60.0338 24.6675 60.0338 24.7908C60.034 25.1989 60.0341 25.607 60.0343 26.0152C60.0343 26.0962 60.0343 26.1772 60.0344 26.2606C60.0353 28.8866 60.038 31.5125 60.0418 34.1385C60.0459 36.9149 60.0482 39.6914 60.0485 42.4678C60.0488 43.9812 60.0498 45.4947 60.0528 47.0081C60.0554 48.2968 60.0563 49.5856 60.0552 50.8743C60.0546 51.5319 60.0549 52.1894 60.0571 52.847C60.0592 53.4492 60.0591 54.0513 60.0573 54.6535C60.057 54.8711 60.0575 55.0888 60.0589 55.3065C60.0676 56.764 59.9958 57.9763 58.9532 59.0911C58.1726 59.7539 57.3019 60.0179 56.298 60.0159C56.1602 60.0163 56.1602 60.0163 56.0196 60.0168C55.7093 60.0175 55.3989 60.0175 55.0885 60.0174C54.8647 60.0178 54.641 60.0183 54.4172 60.0187C53.8003 60.0199 53.1834 60.0203 52.5665 60.0207C51.902 60.0211 51.2374 60.0222 50.5728 60.0233C48.9668 60.0256 47.3608 60.0268 45.7548 60.0278C44.9989 60.0283 44.243 60.0289 43.4871 60.0296C40.9748 60.0315 38.4625 60.0332 35.9502 60.0341C35.7877 60.0341 35.6252 60.0342 35.4626 60.0343C35.3418 60.0343 35.3418 60.0343 35.2184 60.0343C34.8101 60.0345 34.4018 60.0346 33.9935 60.0348C33.872 60.0348 33.872 60.0348 33.748 60.0349C31.1212 60.0358 28.4945 60.0385 25.8677 60.0423C23.0908 60.0464 20.3138 60.0487 17.5368 60.0491C16.023 60.0493 14.5092 60.0503 12.9954 60.0533C11.7062 60.0559 10.417 60.0568 9.12785 60.0557C8.47003 60.0551 7.81224 60.0554 7.15443 60.0576C6.55204 60.0597 5.9497 60.0596 5.34731 60.0578C5.12956 60.0575 4.91182 60.058 4.69408 60.0594C3.22906 60.0681 2.02619 59.995 0.908799 58.9455C0.191927 58.1299 -0.0180257 57.3446 -0.0167032 56.2829C-0.017049 56.1908 -0.0173947 56.0987 -0.017751 56.0037C-0.018771 55.6932 -0.018955 55.3826 -0.0191431 55.072C-0.0196974 54.8479 -0.0203012 54.6237 -0.02095 54.3995C-0.0225813 53.782 -0.0234688 53.1645 -0.0242281 52.547C-0.0249743 52.0177 -0.0261541 51.4884 -0.0273404 50.9591C-0.0312471 49.2151 -0.0337679 47.4711 -0.0359185 45.727C-0.0364804 45.273 -0.0370643 44.8189 -0.0376535 44.3648C-0.0412828 41.5457 -0.0444111 38.7265 -0.0463747 35.9073C-0.046836 35.2542 -0.0473061 34.6011 -0.0477837 33.948C-0.0478425 33.8669 -0.0479015 33.7857 -0.0479621 33.7021C-0.0498855 31.0721 -0.0543914 28.4421 -0.0603566 25.8121C-0.0666528 23.031 -0.0703654 20.25 -0.0712414 17.4689C-0.0717879 15.9531 -0.0735175 14.4374 -0.0782424 12.9216C-0.0822615 11.6307 -0.0838956 10.3398 -0.0824115 9.04882C-0.0817286 8.39025 -0.0821826 7.73174 -0.0857128 7.07318C-0.0889207 6.46983 -0.0888599 5.86657 -0.086239 5.26321C-0.0858615 5.04539 -0.0866648 4.82756 -0.0887933 4.60974C-0.101347 3.24174 -0.0148264 2.13383 0.91476 1.0398C2.08942 -0.0925289 3.47601 -0.0673747 5.0095 -0.0593388ZM13.8425 11.7043C13.7336 11.712 13.6248 11.7198 13.5126 11.7278C12.3179 11.8255 11.1529 12.0174 9.96062 12.1877C9.96062 22.9385 9.96062 33.6892 9.96062 44.7658C12.3583 44.7658 14.7559 44.7658 17.2262 44.7658C17.2262 40.86 17.2262 36.9541 17.2262 32.9299C17.5743 32.9685 17.9223 33.0072 18.2809 33.0471C22.64 33.2711 27.1366 32.6019 30.4904 29.612C31.9351 28.2763 32.8074 26.5038 33.2809 24.6096C33.3074 24.5062 33.3338 24.4029 33.361 24.2964C33.9359 21.553 33.4572 18.6676 32.0061 16.2783C30.0799 13.5077 27.2509 12.3418 24.0323 11.7519C20.6889 11.2722 17.2014 11.4588 13.8425 11.7043ZM37.0309 22.7346C36.9423 22.8125 36.8536 22.8905 36.7622 22.9708C35.3515 24.2846 34.6443 26.0139 34.559 27.9283C34.6091 29.8947 35.3225 31.402 36.7362 32.7673C38.2765 34.1776 40.3322 34.9521 42.27 35.6456C43.2364 35.9967 44.2017 36.3676 44.7653 37.2658C44.9553 37.9901 44.8915 38.5933 44.5309 39.258C43.5054 40.167 42.0673 40.0472 40.7836 39.9896C39.1472 39.8582 37.5827 39.3392 36.0934 38.6721C35.949 38.6097 35.8045 38.5476 35.6599 38.4858C35.5323 38.4313 35.4046 38.3767 35.2731 38.3205C35.1053 38.9771 34.9385 39.634 34.7724 40.291C34.7159 40.5144 34.659 40.7378 34.6019 40.9611C34.5198 41.2824 34.4386 41.6038 34.3576 41.9254C34.332 42.0249 34.3063 42.1244 34.2799 42.2269C34.1637 42.6917 34.0669 43.1105 34.1012 43.5939C37.4788 45.5441 42.1848 45.6777 45.8932 44.7512C48.0252 44.1784 49.8216 43.0886 51.0934 41.2502C52.0853 39.5237 52.3072 37.5593 51.8405 35.6398C51.181 33.447 49.7629 32.1436 47.8072 31.0593C47.0273 30.6452 46.1989 30.3455 45.3732 30.0368C42.3456 28.8964 42.3456 28.8964 41.8356 28.008C41.7485 27.4338 41.759 26.919 41.9675 26.3747C42.6275 25.6487 43.3772 25.4886 44.3185 25.4079C45.973 25.3592 47.6711 25.8091 49.1603 26.4974C49.4619 26.6389 49.4619 26.6389 49.8044 26.4846C49.9214 26.1498 50.0147 25.8289 50.0992 25.4857C50.125 25.3853 50.1508 25.2848 50.1773 25.1813C50.2316 24.9685 50.2851 24.7555 50.338 24.5424C50.4192 24.2158 50.503 23.8899 50.5871 23.564C50.6395 23.3575 50.6917 23.1509 50.7437 22.9442C50.7688 22.8464 50.794 22.7486 50.8199 22.6479C50.9599 22.1045 50.9599 22.1045 50.8591 21.5627C46.898 19.4246 40.4168 19.6577 37.0309 22.7346Z" fill="#0039C8"/>
<path id="Vector_2" d="M20.0168 17.0731C20.168 17.0712 20.3191 17.0693 20.4748 17.0674C22.2705 17.0665 23.8659 17.4691 25.1978 18.7233C26.1296 19.7749 26.3046 21.1155 26.279 22.4724C26.1785 23.7746 25.6402 24.9641 24.7263 25.8988C22.8319 27.4509 20.2599 27.6176 17.9115 27.3987C17.3665 27.3281 17.3665 27.3281 17.2263 27.1879C17.2152 26.8812 17.2116 26.5776 17.213 26.2709C17.213 26.1749 17.213 26.0789 17.2129 25.9799C17.213 25.661 17.2139 25.342 17.2149 25.0231C17.2151 24.8026 17.2152 24.582 17.2154 24.3615C17.2158 23.7799 17.217 23.1982 17.2183 22.6166C17.2195 22.0236 17.22 21.4306 17.2206 20.8375C17.2218 19.673 17.2238 18.5086 17.2263 17.3441C18.1682 17.1106 19.0465 17.0707 20.0168 17.0731Z" fill="#0039C8"/>
</g>
</g>
</g>
<defs>
<clipPath id="clip0_1_446">
<rect width="60" height="60" rx="8" fill="white"/>
</clipPath>
</defs>
</svg>
