<svg width="60" height="60" viewBox="0 0 60 60" fill="none" xmlns="http://www.w3.org/2000/svg">
<g id="after-effects">
<g clip-path="url(#clip0_1_436)">
<g id="Group 296">
<path id="Vector" d="M11.0275 0.686532C11.1971 0.686229 11.3667 0.685876 11.5363 0.685477C12.0014 0.684535 12.4664 0.684322 12.9315 0.684235C13.4335 0.684018 13.9355 0.683133 14.4375 0.682345C15.5348 0.680755 16.6322 0.680047 17.7295 0.679531C18.4152 0.679207 19.1009 0.67871 19.7865 0.678183C21.6863 0.676754 23.5861 0.675547 25.4859 0.67515C25.6075 0.675125 25.729 0.675099 25.8542 0.675073C25.976 0.675047 26.0979 0.675021 26.2234 0.674995C26.4702 0.674943 26.717 0.674891 26.9639 0.674838C27.0863 0.674812 27.2087 0.674786 27.3349 0.674759C29.3176 0.674297 31.3002 0.672252 33.2829 0.669522C35.3203 0.66674 37.3576 0.665283 39.395 0.665146C40.5382 0.665039 41.6814 0.66437 42.8245 0.662238C43.7982 0.660428 44.7719 0.659836 45.7456 0.660801C46.2419 0.661257 46.7382 0.661158 47.2344 0.659505C47.6899 0.658002 48.1453 0.658161 48.6007 0.659574C48.7644 0.659802 48.928 0.659451 49.0916 0.658421C52.2828 0.63962 54.9648 1.83956 57.2457 4.03139C59.1723 6.04156 60.0572 8.68369 60.0459 11.434C60.0464 11.6009 60.0472 11.7679 60.048 11.9349C60.0499 12.3895 60.0497 12.844 60.049 13.2986C60.0487 13.7905 60.0504 14.2824 60.0519 14.7744C60.0543 15.7366 60.0549 16.6988 60.0547 17.661C60.0545 18.4438 60.055 19.2266 60.0558 20.0095C60.0561 20.2355 60.0563 20.4616 60.0566 20.6877C60.0567 20.8565 60.0567 20.8565 60.0569 21.0287C60.0591 23.1543 60.059 25.28 60.0582 27.4056C60.0576 29.3463 60.06 31.2869 60.0639 33.2275C60.0679 35.2241 60.0696 37.2207 60.0691 39.2173C60.0688 40.3367 60.0694 41.456 60.0723 42.5753C60.0748 43.5285 60.0752 44.4817 60.073 45.4348C60.0719 45.9203 60.0718 46.4056 60.0742 46.8911C60.0917 50.6056 59.5126 53.5715 56.9015 56.3451C54.6708 58.4464 51.9848 59.3153 48.9718 59.3132C48.8022 59.3135 48.6326 59.3139 48.463 59.3142C47.9979 59.3152 47.5329 59.3154 47.0678 59.3155C46.5658 59.3157 46.0638 59.3166 45.5618 59.3174C44.4645 59.319 43.3671 59.3197 42.2698 59.3202C41.5841 59.3205 40.8984 59.321 40.2128 59.3215C38.313 59.323 36.4132 59.3242 34.5134 59.3246C34.3918 59.3246 34.2703 59.3246 34.1451 59.3246C34.0233 59.3247 33.9014 59.3247 33.7759 59.3247C33.5291 59.3248 33.2823 59.3248 33.0354 59.3249C32.913 59.3249 32.7905 59.3249 32.6644 59.325C30.6817 59.3254 28.6991 59.3275 26.7164 59.3302C24.679 59.333 22.6417 59.3344 20.6043 59.3346C19.4611 59.3347 18.3179 59.3354 17.1748 59.3375C16.2011 59.3393 15.2274 59.3399 14.2537 59.3389C13.7574 59.3385 13.2611 59.3386 12.7649 59.3402C12.3094 59.3417 11.854 59.3416 11.3986 59.3402C11.2349 59.3399 11.0713 59.3403 10.9076 59.3413C7.71654 59.3601 5.03448 58.1602 2.75355 55.9683C0.826313 53.9575 -0.0585293 51.3146 -0.0457854 48.5634C-0.0462756 48.3962 -0.046918 48.2289 -0.0476978 48.0617C-0.0493791 47.6065 -0.0488979 47.1513 -0.0480295 46.696C-0.0474721 46.2034 -0.0489439 45.7107 -0.0501413 45.2181C-0.0521505 44.2546 -0.0522549 43.2911 -0.0516397 42.3275C-0.051165 41.5439 -0.0513364 40.7602 -0.0519616 39.9766C-0.0520493 39.8648 -0.0521377 39.753 -0.052228 39.6378C-0.0524075 39.4107 -0.052587 39.1836 -0.0527681 38.9564C-0.0543747 36.8291 -0.0537409 34.7018 -0.0523952 32.5745C-0.0512316 30.6314 -0.0527472 28.6882 -0.0555513 26.7451C-0.0584135 24.7465 -0.059535 22.7479 -0.0587565 20.7493C-0.0583481 19.6286 -0.0586032 18.5079 -0.0606609 17.3872C-0.0623911 16.4331 -0.0624537 15.4791 -0.0604177 14.525C-0.0594242 14.0389 -0.0591596 13.5528 -0.0609631 13.0668C-0.0625982 12.6205 -0.062012 12.1743 -0.0597633 11.7281C-0.0591217 11.4929 -0.0607502 11.2577 -0.0625 11.0226C-0.0396249 8.15782 1.20164 5.56859 3.22328 3.56504C5.38413 1.50392 8.08836 0.684431 11.0275 0.686532ZM15.9371 15.9374C15.9166 16.1863 15.8974 16.4354 15.8786 16.6844C15.7238 18.0873 15.2124 19.3899 14.7421 20.7119C14.6423 20.9928 14.5427 21.2739 14.4433 21.5549C14.1242 22.4565 13.8047 23.358 13.484 24.2591C12.7844 26.2267 12.1028 28.2003 11.4254 30.1756C10.5804 32.6398 9.72401 35.0996 8.84776 37.553C8.66592 38.0623 8.48517 38.5721 8.30575 39.0823C8.23572 39.2813 8.16538 39.4801 8.09476 39.6789C7.99137 39.9709 7.8897 40.2635 7.7885 40.5564C7.75737 40.6435 7.72625 40.7306 7.69418 40.8203C7.54725 41.2515 7.48012 41.5188 7.61683 41.953C8.31134 41.9617 9.00582 41.9681 9.70037 41.9723C9.9367 41.9741 10.173 41.9765 10.4093 41.9795C10.7488 41.9838 11.0882 41.9858 11.4277 41.9873C11.5336 41.9891 11.6394 41.9909 11.7485 41.9928C11.8962 41.9929 11.8962 41.9929 12.047 41.9929C12.1336 41.9937 12.2203 41.9945 12.3096 41.9953C12.6128 41.9393 12.7049 41.8458 12.8903 41.6014C13.0107 41.337 13.0107 41.337 13.1023 41.0344C13.1403 40.9179 13.1784 40.8013 13.2175 40.6812C13.2562 40.5591 13.2949 40.4369 13.3348 40.311C13.3895 40.1422 13.3895 40.1422 13.4454 39.97C13.5813 39.5498 13.7154 39.1291 13.8497 38.7084C14.1519 37.7681 14.454 36.8279 14.7653 35.8592C17.859 35.8592 20.9528 35.8592 24.1403 35.8592C25.1217 38.7084 25.1217 38.7084 25.4304 39.6071C25.5115 39.8417 25.5926 40.0764 25.6738 40.311C25.7156 40.4332 25.7574 40.5554 25.8005 40.6812C25.8611 40.8561 25.8611 40.8561 25.923 41.0344C25.9753 41.1862 25.9753 41.1862 26.0286 41.3411C26.1326 41.628 26.1326 41.628 26.3668 41.953C26.6123 42.0042 26.6123 42.0042 26.899 41.9929C27.0093 41.9929 27.1195 41.9928 27.2331 41.9928C27.3524 41.991 27.4717 41.9892 27.5946 41.9873C27.7165 41.9868 27.8384 41.9863 27.964 41.9858C28.3545 41.9838 28.7449 41.9794 29.1354 41.975C29.3997 41.9732 29.664 41.9716 29.9282 41.9702C30.5771 41.9663 31.2259 41.9604 31.8746 41.953C32.0358 41.4382 31.8842 41.0812 31.7012 40.5925C31.652 40.4567 31.652 40.4567 31.6019 40.3181C31.4913 40.013 31.379 39.7086 31.2667 39.4042C31.187 39.1851 31.1075 38.966 31.0281 38.7469C30.8556 38.271 30.6825 37.7954 30.5091 37.3198C30.0824 36.1472 29.6645 34.9714 29.2457 33.7959C28.9961 33.0956 28.746 32.3955 28.4959 31.6954C28.4457 31.5548 28.3954 31.4141 28.3437 31.2692C28.0473 30.4394 27.7508 29.6097 27.4542 28.7801C27.2618 28.2419 27.0694 27.7038 26.8771 27.1656C26.7814 26.8979 26.6857 26.6302 26.59 26.3625C26.0321 24.8024 25.4766 23.2413 24.925 21.6789C24.8349 21.4237 24.7447 21.1685 24.6545 20.9132C24.625 20.8298 24.5955 20.7464 24.5651 20.6605C24.506 20.4931 24.4469 20.3258 24.3877 20.1585C24.2145 19.6684 24.0418 19.1782 23.8694 18.6879C23.7884 18.4577 23.7072 18.2277 23.6259 17.9976C23.5263 17.7158 23.427 17.4339 23.3282 17.1518C23.2841 17.0273 23.2399 16.9028 23.1945 16.7745C23.1563 16.666 23.1181 16.5575 23.0787 16.4457C22.9694 16.1474 22.9694 16.1474 22.734 15.8202C22.4416 15.7679 22.4416 15.7679 22.0961 15.7784C21.9628 15.7781 21.8294 15.7777 21.6921 15.7773C21.4753 15.7795 21.4753 15.7795 21.2541 15.7817C21.1064 15.7819 20.9588 15.7822 20.8066 15.7824C20.494 15.7832 20.1815 15.7846 19.8689 15.7872C19.4675 15.7905 19.066 15.7918 18.6646 15.7923C18.2826 15.7929 17.9007 15.7946 17.5187 15.7964C17.3016 15.7971 17.3016 15.7971 17.08 15.7979C16.9471 15.799 16.8141 15.8001 16.6771 15.8013C16.5594 15.8021 16.4417 15.8029 16.3204 15.8037C16.0582 15.7905 16.0582 15.7905 15.9371 15.9374ZM35.9762 24.7264C34.0984 26.8357 33.1656 29.8098 33.2934 32.6178C33.4397 35.0356 34.0236 37.3757 35.6246 39.2577C35.6969 39.3569 35.6969 39.3569 35.7707 39.4582C37.0929 41.1924 39.4381 41.9807 41.4941 42.3737C43.9875 42.635 47.4854 42.7177 49.6871 41.2499C49.7184 40.9257 49.7279 40.628 49.7215 40.3041C49.721 40.2108 49.7205 40.1175 49.72 40.0214C49.718 39.7228 49.7136 39.4244 49.7091 39.1258C49.7074 38.9237 49.7058 38.7215 49.7043 38.5193C49.7004 38.0232 49.6944 37.5272 49.6871 37.0311C49.5391 37.0646 49.3911 37.0982 49.2385 37.1327C46.4536 37.7491 43.5022 38.3102 40.866 36.8878C39.8256 36.2096 39.3649 35.2708 39.0231 34.1014C38.9823 33.8673 38.943 33.633 38.9059 33.3983C39.0346 33.4 39.1634 33.4018 39.296 33.4035C40.5148 33.4198 41.7336 33.4354 42.9524 33.4502C43.5788 33.4579 44.2053 33.4658 44.8317 33.4743C45.4373 33.4825 46.0429 33.49 46.6485 33.4971C46.8785 33.4999 47.1085 33.5029 47.3385 33.5062C49.324 33.6581 49.324 33.6581 51.2106 33.2811C51.9664 31.0137 51.4129 28.0141 50.3903 25.8983C49.3171 23.9719 47.766 22.7842 45.6671 22.1442C42.1387 21.2229 38.4973 22.0496 35.9762 24.7264Z" fill="#0039C8"/>
<path id="Vector_2" d="M19.3359 20.2734C19.6124 20.5499 19.6613 20.7379 19.7757 21.11C19.8149 21.2362 19.8541 21.3625 19.8944 21.4925C19.9364 21.6304 19.9784 21.7683 20.0217 21.9104C20.0659 22.0537 20.1102 22.197 20.1558 22.3447C20.2744 22.7286 20.3921 23.1128 20.5096 23.4971C20.6255 23.8756 20.7422 24.2539 20.8589 24.6323C21.0427 25.2285 21.2258 25.825 21.4083 26.4217C21.5893 27.0122 21.7724 27.6021 21.9574 28.1914C22.0231 28.4015 22.0231 28.4015 22.09 28.6158C22.1727 28.8803 22.2559 29.1447 22.3397 29.4088C22.3764 29.5264 22.413 29.6439 22.4507 29.7649C22.483 29.8674 22.5153 29.9698 22.5486 30.0754C22.6172 30.3516 22.6172 30.3516 22.6172 30.8203C20.4902 30.8203 18.3633 30.8203 16.1719 30.8203C16.5674 29.2381 16.5674 29.2381 16.7837 28.5289C16.8072 28.4515 16.8307 28.3741 16.8549 28.2944C16.9308 28.0445 17.0073 27.7948 17.0837 27.545C17.1376 27.3683 17.1914 27.1915 17.2452 27.0148C17.3573 26.6468 17.4696 26.279 17.5821 25.9112C17.7254 25.4425 17.8683 24.9736 18.0111 24.5047C18.122 24.1406 18.233 23.7766 18.3441 23.4126C18.3968 23.2398 18.4495 23.067 18.5022 22.8941C18.7697 22.0169 19.0403 21.1416 19.3359 20.2734Z" fill="#0039C8"/>
<path id="Vector_3" d="M44.7949 26.5719C45.6424 27.2653 46.1367 28.003 46.2524 29.1134C46.266 29.2916 46.2787 29.4698 46.2891 29.6481C45.8453 29.8533 45.5002 29.9112 45.0127 29.9091C44.8766 29.9091 44.7406 29.9091 44.6004 29.909C44.4548 29.9078 44.3092 29.9066 44.1591 29.9054C43.934 29.9049 43.934 29.9049 43.7044 29.9044C43.307 29.9035 42.9096 29.9012 42.5121 29.8986C42.106 29.8962 41.6999 29.8951 41.2937 29.8939C40.4979 29.8913 39.7021 29.8874 38.9062 29.8825C38.9228 29.6943 38.94 29.5062 38.9574 29.3182C38.9669 29.2134 38.9764 29.1087 38.9862 29.0008C39.0913 28.1822 39.6147 27.403 40.1953 26.8356C41.6409 25.8395 43.242 25.7357 44.7949 26.5719Z" fill="#0039C8"/>
</g>
</g>
</g>
<defs>
<clipPath id="clip0_1_436">
<rect width="60" height="60" rx="8" fill="white"/>
</clipPath>
</defs>
</svg>
