<svg width="69" height="43" viewBox="0 0 69 43" fill="none" xmlns="http://www.w3.org/2000/svg">
<rect x="0.556543" y="0.556543" width="7.79161" height="23.3748" rx="1.66963" fill="#0039C8" stroke="#0039C8" stroke-width="1.11309"/>
<rect x="0.556543" y="18.369" width="4.45235" height="23.3748" rx="1.66963" fill="#0039C8" stroke="#0039C8" stroke-width="1.11309"/>
<mask id="path-3-inside-1_322_6178" fill="white">
<path fill-rule="evenodd" clip-rule="evenodd" d="M25.271 24.5039H17.7493C11.7055 24.5039 6.80602 29.4066 6.80602 35.4504C6.80602 36.0652 7.30437 36.5638 7.91911 36.5638H30.2559C33.5862 36.5638 36.2859 33.8641 36.2859 30.5339C36.2859 29.8512 36.1724 29.195 35.9633 28.5831C37.0869 26.4253 39.7465 26.1039 41.7891 26.3112C42.1244 27.3616 42.3054 28.4809 42.3054 29.6425V31.4292C42.3054 37.473 37.4059 42.3724 31.3621 42.3724H1.87871C1.26397 42.3724 0.765625 41.8741 0.765625 41.2593V29.6425C0.765625 23.5987 5.6651 18.6992 11.7089 18.6992H30.4629C28.1954 20.424 25.9821 22.8115 25.271 24.5039Z"/>
</mask>
<path fill-rule="evenodd" clip-rule="evenodd" d="M25.271 24.5039H17.7493C11.7055 24.5039 6.80602 29.4066 6.80602 35.4504C6.80602 36.0652 7.30437 36.5638 7.91911 36.5638H30.2559C33.5862 36.5638 36.2859 33.8641 36.2859 30.5339C36.2859 29.8512 36.1724 29.195 35.9633 28.5831C37.0869 26.4253 39.7465 26.1039 41.7891 26.3112C42.1244 27.3616 42.3054 28.4809 42.3054 29.6425V31.4292C42.3054 37.473 37.4059 42.3724 31.3621 42.3724H1.87871C1.26397 42.3724 0.765625 41.8741 0.765625 41.2593V29.6425C0.765625 23.5987 5.6651 18.6992 11.7089 18.6992H30.4629C28.1954 20.424 25.9821 22.8115 25.271 24.5039Z" fill="#0039C8"/>
<path d="M25.271 24.5039V24.7272H25.4195L25.4769 24.5904L25.271 24.5039ZM35.9633 28.5831L35.7653 28.48L35.7211 28.5648L35.752 28.6553L35.9633 28.5831ZM41.7891 26.3112L42.0019 26.2433L41.9573 26.1038L41.8117 26.089L41.7891 26.3112ZM30.4629 18.6992L30.5981 18.877L31.1253 18.4759H30.4629V18.6992ZM25.271 24.2806H17.7493V24.7272H25.271V24.2806ZM17.7493 24.2806C11.5821 24.2806 6.58269 29.2834 6.58269 35.4504H7.02936C7.02936 29.5299 11.8289 24.7272 17.7493 24.7272V24.2806ZM6.58269 35.4504C6.58269 36.1884 7.18094 36.7872 7.91911 36.7872V36.3405C7.4278 36.3405 7.02936 35.9419 7.02936 35.4504H6.58269ZM7.91911 36.7872H30.2559V36.3405H7.91911V36.7872ZM30.2559 36.7872C33.7095 36.7872 36.5092 33.9875 36.5092 30.5339H36.0625C36.0625 33.7408 33.4628 36.3405 30.2559 36.3405V36.7872ZM36.5092 30.5339C36.5092 29.8263 36.3916 29.1457 36.1747 28.5109L35.752 28.6553C35.9532 29.2442 36.0625 29.8761 36.0625 30.5339H36.5092ZM36.1614 28.6862C36.6887 27.6737 37.5775 27.0854 38.5968 26.7738C39.6198 26.4612 40.7632 26.4316 41.7666 26.5334L41.8117 26.089C40.7723 25.9835 39.5647 26.011 38.4663 26.3467C37.3643 26.6835 36.3616 27.3348 35.7653 28.48L36.1614 28.6862ZM42.5287 29.6425C42.5287 28.4576 42.3441 27.3153 42.0019 26.2433L41.5764 26.3791C41.9047 27.4078 42.0821 28.5042 42.0821 29.6425H42.5287ZM42.5287 31.4292V29.6425H42.0821V31.4292H42.5287ZM31.3621 42.5958C37.5293 42.5958 42.5287 37.5963 42.5287 31.4292H42.0821C42.0821 37.3496 37.2826 42.1491 31.3621 42.1491V42.5958ZM1.87871 42.5958H31.3621V42.1491H1.87871V42.5958ZM0.542293 41.2593C0.542293 41.9974 1.14063 42.5958 1.87871 42.5958V42.1491C1.38731 42.1491 0.988957 41.7507 0.988957 41.2593H0.542293ZM0.542293 29.6425V41.2593H0.988957V29.6425H0.542293ZM11.7089 18.4759C5.54175 18.4759 0.542293 23.4753 0.542293 29.6425H0.988957C0.988957 23.722 5.78844 18.9226 11.7089 18.9226V18.4759ZM30.4629 18.4759H11.7089V18.9226H30.4629V18.4759ZM30.3277 18.5215C29.1832 19.3921 28.0527 20.4295 27.1176 21.4639C26.1855 22.4951 25.435 23.537 25.0652 24.4174L25.4769 24.5904C25.8181 23.7784 26.5298 22.7804 27.449 21.7635C28.3652 20.7499 29.4751 19.7312 30.5981 18.877L30.3277 18.5215Z" fill="#0039C8" mask="url(#path-3-inside-1_322_6178)"/>
<rect x="-0.556543" y="0.556543" width="7.79161" height="23.3748" rx="1.66963" transform="matrix(-1 0 0 1 67.8908 0)" fill="#0039C8" stroke="#0039C8" stroke-width="1.11309"/>
<rect x="-0.556543" y="0.556543" width="4.45235" height="23.3748" rx="1.66963" transform="matrix(-1 0 0 1 67.8908 17.8125)" fill="#0039C8" stroke="#0039C8" stroke-width="1.11309"/>
<mask id="path-7-inside-2_322_6178" fill="white">
<path fill-rule="evenodd" clip-rule="evenodd" d="M43.7211 36.5703H61.1043C61.7191 36.5703 62.2174 36.0715 62.2174 35.4568C62.2174 29.4139 57.3187 24.5104 51.2758 24.5104H38.768C35.4375 24.5104 32.7376 27.2103 32.7376 30.5408C32.7376 31.2098 32.8465 31.8533 33.0476 32.4546C31.938 34.6397 29.2708 34.9698 27.2188 34.7646C26.8834 33.7143 26.7024 32.595 26.7024 31.4334V29.6451C26.7024 23.6013 31.6019 18.7018 37.6457 18.7018H57.3006C63.3435 18.7018 68.2422 23.6005 68.2422 29.6434V41.2619C68.2422 41.8767 67.7438 42.375 67.1291 42.375H38.5293C40.7968 40.6502 43.0101 38.2627 43.7211 36.5703Z"/>
</mask>
<path fill-rule="evenodd" clip-rule="evenodd" d="M43.7211 36.5703H61.1043C61.7191 36.5703 62.2174 36.0715 62.2174 35.4568C62.2174 29.4139 57.3187 24.5104 51.2758 24.5104H38.768C35.4375 24.5104 32.7376 27.2103 32.7376 30.5408C32.7376 31.2098 32.8465 31.8533 33.0476 32.4546C31.938 34.6397 29.2708 34.9698 27.2188 34.7646C26.8834 33.7143 26.7024 32.595 26.7024 31.4334V29.6451C26.7024 23.6013 31.6019 18.7018 37.6457 18.7018H57.3006C63.3435 18.7018 68.2422 23.6005 68.2422 29.6434V41.2619C68.2422 41.8767 67.7438 42.375 67.1291 42.375H38.5293C40.7968 40.6502 43.0101 38.2627 43.7211 36.5703Z" fill="#0039C8"/>
<path d="M43.7211 36.5703V36.347H43.5727L43.5152 36.4838L43.7211 36.5703ZM33.0476 32.4546L33.2468 32.5557L33.2891 32.4724L33.2594 32.3838L33.0476 32.4546ZM27.2188 34.7646L27.006 34.8326L27.0506 34.9723L27.1965 34.9869L27.2188 34.7646ZM38.5293 42.375L38.3941 42.1972L37.8668 42.5983H38.5293V42.375ZM43.7211 36.7937H61.1043V36.347H43.7211V36.7937ZM61.1043 36.7937C61.8425 36.7937 62.4407 36.1947 62.4407 35.4568H61.9941C61.9941 35.9483 61.5956 36.347 61.1043 36.347V36.7937ZM62.4407 35.4568C62.4407 29.2906 57.4421 24.2871 51.2758 24.2871V24.7337C57.1952 24.7337 61.9941 29.5371 61.9941 35.4568H62.4407ZM51.2758 24.2871H38.768V24.7337H51.2758V24.2871ZM38.768 24.2871C35.3141 24.2871 32.5142 27.087 32.5142 30.5408H32.9609C32.9609 27.3336 35.5608 24.7337 38.768 24.7337V24.2871ZM32.5142 30.5408C32.5142 31.2342 32.6272 31.9016 32.8358 32.5254L33.2594 32.3838C33.0659 31.805 32.9609 31.1854 32.9609 30.5408H32.5142ZM32.8485 32.3535C32.3277 33.3791 31.4405 33.9757 30.4203 34.2927C29.3964 34.6109 28.249 34.6432 27.241 34.5424L27.1965 34.9869C28.2406 35.0912 29.4528 35.0611 30.5529 34.7192C31.6567 34.3762 32.658 33.7152 33.2468 32.5557L32.8485 32.3535ZM26.4791 31.4334C26.4791 32.6183 26.6637 33.7605 27.006 34.8326L27.4315 34.6967C27.1031 33.668 26.9257 32.5716 26.9257 31.4334H26.4791ZM26.4791 29.6451V31.4334H26.9257V29.6451H26.4791ZM37.6457 18.4785C31.4785 18.4785 26.4791 23.4779 26.4791 29.6451H26.9257C26.9257 23.7246 31.7252 18.9251 37.6457 18.9251V18.4785ZM57.3006 18.4785H37.6457V18.9251H57.3006V18.4785ZM68.4655 29.6434C68.4655 23.4772 63.4668 18.4785 57.3006 18.4785V18.9251C63.2201 18.9251 68.0189 23.7239 68.0189 29.6434H68.4655ZM68.4655 41.2619V29.6434H68.0189V41.2619H68.4655ZM67.1291 42.5983C67.8672 42.5983 68.4655 42 68.4655 41.2619H68.0189C68.0189 41.7533 67.6205 42.1517 67.1291 42.1517V42.5983ZM38.5293 42.5983H67.1291V42.1517H38.5293V42.5983ZM38.6645 42.5528C39.809 41.6822 40.9395 40.6448 41.8746 39.6103C42.8066 38.5791 43.5572 37.5372 43.927 36.6568L43.5152 36.4838C43.1741 37.2959 42.4624 38.2939 41.5432 39.3108C40.627 40.3243 39.5171 41.343 38.3941 42.1972L38.6645 42.5528Z" fill="#0039C8" mask="url(#path-7-inside-2_322_6178)"/>
</svg>
