<svg width="97" height="55" viewBox="0 0 97 55" fill="none" xmlns="http://www.w3.org/2000/svg">
<rect x="33.6864" y="6.86607" width="4.57815" height="17.6586" rx="0.981032" fill="white" stroke="white" stroke-width="0.654021"/>
<rect x="33.6864" y="0.327011" width="4.57815" height="3.92413" rx="0.981032" fill="white" stroke="white" stroke-width="0.654021"/>
<rect x="59.8387" y="12.1083" width="4.57815" height="12.4264" rx="0.981032" fill="white" stroke="white" stroke-width="0.654021"/>
<rect x="44.1434" y="6.87389" width="4.57815" height="17.6586" rx="0.981032" fill="white" stroke="white" stroke-width="0.654021"/>
<path d="M47.7422 13.4173C50.1875 11.3943 56.7796 8.47123 59.8416 9.8199C62.9036 11.1686 62.1307 14.0708 62.1307 17.6679" stroke="white" stroke-width="5.23217" stroke-linecap="round"/>
<rect x="61.8075" y="42.1786" width="4.57815" height="12.4264" rx="0.981032" fill="white" stroke="white" stroke-width="0.654021"/>
<rect x="46.1122" y="36.9442" width="4.57815" height="17.6586" rx="0.981032" fill="white" stroke="white" stroke-width="0.654021"/>
<path d="M49.7109 43.4876C52.1563 41.4646 58.7484 38.5415 61.8103 39.8902C64.8723 41.2389 64.0994 44.1411 64.0994 47.7383" stroke="white" stroke-width="5.23217" stroke-linecap="round"/>
<rect x="-0.327011" y="0.327011" width="4.57815" height="13.7344" rx="0.981032" transform="matrix(-1 0 0 1 96.1429 30.0898)" fill="white" stroke="white" stroke-width="0.654021"/>
<rect x="-0.327011" y="0.327011" width="2.61608" height="13.7344" rx="0.981032" transform="matrix(-1 0 0 1 96.1429 40.5508)" fill="white" stroke="white" stroke-width="0.654021"/>
<mask id="path-11-inside-1_468_14" fill="white">
<path fill-rule="evenodd" clip-rule="evenodd" d="M78.3636 54.9805C74.8124 54.9805 71.9336 52.1017 71.9336 48.5505V47.5007C71.9336 43.9495 74.8124 41.0707 78.3636 41.0707H89.9113C93.4625 41.0707 96.3413 43.9495 96.3413 47.5007V54.3264C96.3413 54.6877 96.0485 54.9805 95.6873 54.9805H78.3636ZM79.0196 51.5664C77.0628 51.5664 75.4766 49.9801 75.4766 48.0234C75.4766 46.0666 77.0628 44.4803 79.0196 44.4803H86.3682C89.9194 44.4803 92.7982 47.361 92.7982 50.9122C92.7982 51.2734 92.5054 51.5664 92.1441 51.5664H79.0196Z"/>
</mask>
<path fill-rule="evenodd" clip-rule="evenodd" d="M78.3636 54.9805C74.8124 54.9805 71.9336 52.1017 71.9336 48.5505V47.5007C71.9336 43.9495 74.8124 41.0707 78.3636 41.0707H89.9113C93.4625 41.0707 96.3413 43.9495 96.3413 47.5007V54.3264C96.3413 54.6877 96.0485 54.9805 95.6873 54.9805H78.3636ZM79.0196 51.5664C77.0628 51.5664 75.4766 49.9801 75.4766 48.0234C75.4766 46.0666 77.0628 44.4803 79.0196 44.4803H86.3682C89.9194 44.4803 92.7982 47.361 92.7982 50.9122C92.7982 51.2734 92.5054 51.5664 92.1441 51.5664H79.0196Z" fill="white"/>
<path d="M72.0648 48.5505C72.0648 52.0292 74.8849 54.8492 78.3636 54.8492V55.1117C74.7399 55.1117 71.8024 52.1741 71.8024 48.5505H72.0648ZM72.0648 47.5007V48.5505H71.8024V47.5007H72.0648ZM78.3636 41.2019C74.8849 41.2019 72.0648 44.022 72.0648 47.5007H71.8024C71.8024 43.877 74.7399 40.9395 78.3636 40.9395V41.2019ZM89.9113 41.2019H78.3636V40.9395H89.9113V41.2019ZM96.2101 47.5007C96.2101 44.022 93.39 41.2019 89.9113 41.2019V40.9395C93.535 40.9395 96.4725 43.877 96.4725 47.5007H96.2101ZM96.2101 54.3264V47.5007H96.4725V54.3264H96.2101ZM95.6873 54.8492C95.976 54.8492 96.2101 54.6152 96.2101 54.3264H96.4725C96.4725 54.7601 96.121 55.1117 95.6873 55.1117V54.8492ZM78.3636 54.8492H95.6873V55.1117H78.3636V54.8492ZM75.6078 48.0234C75.6078 49.9077 77.1353 51.4352 79.0196 51.4352V51.6976C76.9904 51.6976 75.3453 50.0526 75.3453 48.0234H75.6078ZM79.0196 44.6115C77.1353 44.6115 75.6078 46.139 75.6078 48.0234H75.3453C75.3453 45.9941 76.9904 44.3491 79.0196 44.3491V44.6115ZM86.3682 44.6115H79.0196V44.3491H86.3682V44.6115ZM92.6669 50.9122C92.6669 47.4334 89.8468 44.6115 86.3682 44.6115V44.3491C89.9919 44.3491 92.9294 47.2886 92.9294 50.9122H92.6669ZM92.1441 51.4352C92.4328 51.4352 92.6669 51.201 92.6669 50.9122H92.9294C92.9294 51.3458 92.5779 51.6976 92.1441 51.6976V51.4352ZM79.0196 51.4352H92.1441V51.6976H79.0196V51.4352Z" fill="white" mask="url(#path-11-inside-1_468_14)"/>
<path d="M75.2058 5.88442C78.4768 2.84275 83.5388 2.83388 86.979 5.8841C90.3291 8.85435 88.6132 13.3074 88.6132 17.2316" stroke="white" stroke-width="3.27011" stroke-linecap="round"/>
<mask id="path-14-inside-2_468_14" fill="white">
<path fill-rule="evenodd" clip-rule="evenodd" d="M76.4026 25.0781C72.8515 25.0781 69.9727 22.1993 69.9727 18.6481V17.7737C69.9727 14.2225 72.8515 11.3437 76.4026 11.3437H83.8173C87.3685 11.3437 90.2473 14.2225 90.2473 17.7737V24.4241C90.2473 24.7853 89.9545 25.0781 89.5933 25.0781H76.4026ZM76.8354 21.8125C74.8488 21.8125 73.2383 20.202 73.2383 18.2154C73.2383 16.2288 74.8488 14.6183 76.8354 14.6183H80.5427C84.0939 14.6183 86.9727 17.4971 86.9727 21.0483V21.1585C86.9727 21.5197 86.6799 21.8125 86.3187 21.8125H76.8354Z"/>
</mask>
<path fill-rule="evenodd" clip-rule="evenodd" d="M76.4026 25.0781C72.8515 25.0781 69.9727 22.1993 69.9727 18.6481V17.7737C69.9727 14.2225 72.8515 11.3437 76.4026 11.3437H83.8173C87.3685 11.3437 90.2473 14.2225 90.2473 17.7737V24.4241C90.2473 24.7853 89.9545 25.0781 89.5933 25.0781H76.4026ZM76.8354 21.8125C74.8488 21.8125 73.2383 20.202 73.2383 18.2154C73.2383 16.2288 74.8488 14.6183 76.8354 14.6183H80.5427C84.0939 14.6183 86.9727 17.4971 86.9727 21.0483V21.1585C86.9727 21.5197 86.6799 21.8125 86.3187 21.8125H76.8354Z" fill="white"/>
<path d="M70.1039 18.6481C70.1039 22.1268 72.9239 24.9469 76.4026 24.9469V25.2093C72.779 25.2093 69.8414 22.2718 69.8414 18.6481H70.1039ZM70.1039 17.7737V18.6481H69.8414V17.7737H70.1039ZM76.4026 11.4749C72.9239 11.4749 70.1039 14.295 70.1039 17.7737H69.8414C69.8414 14.15 72.779 11.2125 76.4026 11.2125V11.4749ZM83.8173 11.4749H76.4026V11.2125H83.8173V11.4749ZM90.1161 17.7737C90.1161 14.295 87.296 11.4749 83.8173 11.4749V11.2125C87.441 11.2125 90.3785 14.15 90.3785 17.7737H90.1161ZM90.1161 24.4241V17.7737H90.3785V24.4241H90.1161ZM89.5933 24.9469C89.882 24.9469 90.1161 24.7128 90.1161 24.4241H90.3785C90.3785 24.8578 90.027 25.2093 89.5933 25.2093V24.9469ZM76.4026 24.9469H89.5933V25.2093H76.4026V24.9469ZM73.3695 18.2154C73.3695 20.1295 74.9212 21.6813 76.8354 21.6813V21.9437C74.7763 21.9437 73.1071 20.2745 73.1071 18.2154H73.3695ZM76.8354 14.7495C74.9212 14.7495 73.3695 16.3012 73.3695 18.2154H73.1071C73.1071 16.1563 74.7763 14.487 76.8354 14.487V14.7495ZM80.5427 14.7495H76.8354V14.487H80.5427V14.7495ZM86.8415 21.0483C86.8415 17.5695 84.0214 14.7495 80.5427 14.7495V14.487C84.1664 14.487 87.1039 17.4246 87.1039 21.0483H86.8415ZM86.8415 21.1585V21.0483H87.1039V21.1585H86.8415ZM86.3187 21.6813C86.6074 21.6813 86.8415 21.4472 86.8415 21.1585H87.1039C87.1039 21.5922 86.7524 21.9437 86.3187 21.9437V21.6813ZM76.8354 21.6813H86.3187V21.9437H76.8354V21.6813Z" fill="white" mask="url(#path-14-inside-2_468_14)"/>
<mask id="path-16-inside-3_468_14" fill="white">
<path fill-rule="evenodd" clip-rule="evenodd" d="M16.1445 46.9651C16.1445 43.414 19.0233 40.5352 22.5745 40.5352H34.1223C37.6734 40.5352 40.5522 43.414 40.5522 46.9651V48.0149C40.5522 51.5661 37.6734 54.4449 34.1223 54.4449H23.2714C24.4886 53.4044 25.6505 51.9977 25.9672 51.0353H33.4661C35.4228 51.0353 37.0091 49.449 37.0091 47.4923C37.0091 45.5355 35.4228 43.9492 33.466 43.9492H23.2306C21.2738 43.9492 19.6875 45.5355 19.6875 47.4923C19.6875 47.9898 19.79 48.4633 19.9751 48.8929C19.1714 50.1345 17.4415 50.0952 16.4119 49.8558C16.238 49.2726 16.1445 48.6547 16.1445 48.0149V46.9651Z"/>
</mask>
<path fill-rule="evenodd" clip-rule="evenodd" d="M16.1445 46.9651C16.1445 43.414 19.0233 40.5352 22.5745 40.5352H34.1223C37.6734 40.5352 40.5522 43.414 40.5522 46.9651V48.0149C40.5522 51.5661 37.6734 54.4449 34.1223 54.4449H23.2714C24.4886 53.4044 25.6505 51.9977 25.9672 51.0353H33.4661C35.4228 51.0353 37.0091 49.449 37.0091 47.4923C37.0091 45.5355 35.4228 43.9492 33.466 43.9492H23.2306C21.2738 43.9492 19.6875 45.5355 19.6875 47.4923C19.6875 47.9898 19.79 48.4633 19.9751 48.8929C19.1714 50.1345 17.4415 50.0952 16.4119 49.8558C16.238 49.2726 16.1445 48.6547 16.1445 48.0149V46.9651Z" fill="white"/>
<path d="M23.2714 54.4449L23.1861 54.3452L22.9159 54.5762H23.2714V54.4449ZM25.9672 51.0353V50.9041H25.8722L25.8425 50.9943L25.9672 51.0353ZM19.9751 48.8929L20.0853 48.9642L20.1234 48.9054L20.0956 48.841L19.9751 48.8929ZM16.4119 49.8558L16.2862 49.8934L16.308 49.9664L16.3822 49.9837L16.4119 49.8558ZM22.5745 40.4039C18.9509 40.4039 16.0133 43.3415 16.0133 46.9651H16.2758C16.2758 43.4864 19.0958 40.6664 22.5745 40.6664V40.4039ZM34.1223 40.4039H22.5745V40.6664H34.1223V40.4039ZM40.6835 46.9651C40.6835 43.3415 37.7459 40.4039 34.1223 40.4039V40.6664C37.601 40.6664 40.421 43.4864 40.421 46.9651H40.6835ZM40.6835 48.0149V46.9651H40.421V48.0149H40.6835ZM34.1223 54.5762C37.7459 54.5762 40.6835 51.6386 40.6835 48.0149H40.421C40.421 51.4937 37.601 54.3137 34.1223 54.3137V54.5762ZM23.2714 54.5762H34.1223V54.3137H23.2714V54.5762ZM23.3566 54.5447C23.9713 54.0193 24.5719 53.4016 25.0594 52.7929C25.5451 52.1865 25.9262 51.5797 26.0918 51.0763L25.8425 50.9943C25.6915 51.4534 25.3333 52.0311 24.8546 52.6288C24.3777 53.2242 23.7887 53.8301 23.1861 54.3452L23.3566 54.5447ZM25.9672 51.1666H33.4661V50.9041H25.9672V51.1666ZM33.4661 51.1666C35.4953 51.1666 37.1403 49.5215 37.1403 47.4923H36.8779C36.8779 49.3766 35.3504 50.9041 33.4661 50.9041V51.1666ZM37.1403 47.4923C37.1403 45.463 35.4953 43.818 33.466 43.818V44.0804C35.3504 44.0804 36.8779 45.608 36.8779 47.4923H37.1403ZM33.466 43.818H23.2306V44.0804H33.466V43.818ZM23.2306 43.818C21.2013 43.818 19.5563 45.463 19.5563 47.4923H19.8187C19.8187 45.608 21.3463 44.0804 23.2306 44.0804V43.818ZM19.5563 47.4923C19.5563 48.008 19.6626 48.4991 19.8546 48.9449L20.0956 48.841C19.9175 48.4275 19.8187 47.9716 19.8187 47.4923H19.5563ZM19.865 48.8216C19.4891 49.4023 18.8941 49.6891 18.2557 49.8005C17.616 49.9121 16.9445 49.8449 16.4416 49.728L16.3822 49.9837C16.9089 50.1061 17.6172 50.1783 18.3008 50.059C18.9856 49.9395 19.6574 49.6252 20.0853 48.9642L19.865 48.8216ZM16.0133 48.0149C16.0133 48.6675 16.1086 49.2981 16.2862 49.8934L16.5377 49.8183C16.3673 49.2472 16.2758 48.6419 16.2758 48.0149H16.0133ZM16.0133 46.9651V48.0149H16.2758V46.9651H16.0133Z" fill="white" mask="url(#path-16-inside-3_468_14)"/>
<rect x="0.327011" y="30.3973" width="4.57815" height="13.7344" rx="0.981032" fill="white" stroke="white" stroke-width="0.654021"/>
<rect x="0.327011" y="40.8583" width="2.61608" height="13.7344" rx="0.981032" fill="white" stroke="white" stroke-width="0.654021"/>
<mask id="path-20-inside-4_468_14" fill="white">
<path fill-rule="evenodd" clip-rule="evenodd" d="M14.8391 44.4721H10.4067C6.85554 44.4721 3.97674 47.3528 3.97674 50.904C3.97674 51.2652 4.26955 51.5582 4.63076 51.5582H17.7553C19.7121 51.5582 21.2983 49.9719 21.2983 48.0152C21.2983 47.619 21.2333 47.238 21.1133 46.8822C21.7616 45.5956 23.3257 45.3984 24.5322 45.5172C24.7329 46.1396 24.8413 46.8034 24.8413 47.4925V48.5423C24.8413 52.0935 21.9625 54.9723 18.4113 54.9723H1.08761C0.726408 54.9723 0.433594 54.6795 0.433594 54.3183V47.4925C0.433594 43.9413 3.3124 41.0625 6.86358 41.0625H17.8749C16.5433 42.0798 15.2479 43.482 14.8391 44.4721Z"/>
</mask>
<path fill-rule="evenodd" clip-rule="evenodd" d="M14.8391 44.4721H10.4067C6.85554 44.4721 3.97674 47.3528 3.97674 50.904C3.97674 51.2652 4.26955 51.5582 4.63076 51.5582H17.7553C19.7121 51.5582 21.2983 49.9719 21.2983 48.0152C21.2983 47.619 21.2333 47.238 21.1133 46.8822C21.7616 45.5956 23.3257 45.3984 24.5322 45.5172C24.7329 46.1396 24.8413 46.8034 24.8413 47.4925V48.5423C24.8413 52.0935 21.9625 54.9723 18.4113 54.9723H1.08761C0.726408 54.9723 0.433594 54.6795 0.433594 54.3183V47.4925C0.433594 43.9413 3.3124 41.0625 6.86358 41.0625H17.8749C16.5433 42.0798 15.2479 43.482 14.8391 44.4721Z" fill="white"/>
<path d="M14.8391 44.4721V44.6033H14.9268L14.9603 44.5222L14.8391 44.4721ZM21.1133 46.8822L20.9961 46.8232L20.9715 46.8722L20.989 46.9242L21.1133 46.8822ZM24.5322 45.5172L24.6571 45.477L24.6307 45.3951L24.5451 45.3866L24.5322 45.5172ZM17.8749 41.0625L17.9545 41.1668L18.2628 40.9313H17.8749V41.0625ZM14.8391 44.3409H10.4067V44.6033H14.8391V44.3409ZM10.4067 44.3409C6.78302 44.3409 3.84551 47.2804 3.84551 50.904H4.10796C4.10796 47.4252 6.92807 44.6033 10.4067 44.6033V44.3409ZM3.84551 50.904C3.84551 51.3376 4.19703 51.6894 4.63076 51.6894V51.427C4.34208 51.427 4.10796 51.1928 4.10796 50.904H3.84551ZM4.63076 51.6894H17.7553V51.427H4.63076V51.6894ZM17.7553 51.6894C19.7845 51.6894 21.4296 50.0444 21.4296 48.0152H21.1671C21.1671 49.8995 19.6396 51.427 17.7553 51.427V51.6894ZM21.4296 48.0152C21.4296 47.6045 21.3621 47.2094 21.2377 46.8403L20.989 46.9242C21.1045 47.2665 21.1671 47.6334 21.1671 48.0152H21.4296ZM21.2305 46.9413C21.5348 46.3373 22.0545 45.9854 22.6527 45.7979C23.2531 45.6097 23.9267 45.5895 24.5194 45.6478L24.5451 45.3866C23.9312 45.3262 23.2194 45.3452 22.5741 45.5475C21.9266 45.7505 21.3401 46.1405 20.9961 46.8232L21.2305 46.9413ZM24.9725 47.4925C24.9725 46.7895 24.8619 46.1122 24.6571 45.477L24.4073 45.5575C24.6039 46.167 24.7101 46.8172 24.7101 47.4925H24.9725ZM24.9725 48.5423V47.4925H24.7101V48.5423H24.9725ZM18.4113 55.1035C22.035 55.1035 24.9725 52.1659 24.9725 48.5423H24.7101C24.7101 52.021 21.89 54.8411 18.4113 54.8411V55.1035ZM1.08761 55.1035H18.4113V54.8411H1.08761V55.1035ZM0.302369 54.3183C0.302369 54.7519 0.653935 55.1035 1.08761 55.1035V54.8411C0.798881 54.8411 0.564818 54.607 0.564818 54.3183H0.302369ZM0.302369 47.4925V54.3183H0.564818V47.4925H0.302369ZM6.86358 40.9313C3.23993 40.9313 0.302369 43.8688 0.302369 47.4925H0.564818C0.564818 44.0138 3.38487 41.1937 6.86358 41.1937V40.9313ZM17.8749 40.9313H6.86358V41.1937H17.8749V40.9313ZM17.7952 40.9582C17.1231 41.4717 16.4604 42.082 15.9134 42.6897C15.3682 43.2954 14.9306 43.9066 14.7178 44.422L14.9603 44.5222C15.1563 44.0476 15.5708 43.4626 16.1085 42.8653C16.6443 42.27 17.295 41.6706 17.9545 41.1668L17.7952 40.9582Z" fill="white" mask="url(#path-20-inside-4_468_14)"/>
<rect x="-0.327011" y="0.327011" width="4.57815" height="13.7344" rx="0.981032" transform="matrix(-1 0 0 1 27.4671 0)" fill="white" stroke="white" stroke-width="0.654021"/>
<rect x="-0.327011" y="0.327011" width="2.61608" height="13.7344" rx="0.981032" transform="matrix(-1 0 0 1 27.4671 10.4609)" fill="white" stroke="white" stroke-width="0.654021"/>
<mask id="path-24-inside-5_468_14" fill="white">
<path fill-rule="evenodd" clip-rule="evenodd" d="M9.69562 24.8984C6.14443 24.8984 3.26562 22.0196 3.26562 18.4685V17.4187C3.26562 13.8675 6.14443 10.9887 9.69562 10.9887L21.2434 10.9887C24.7945 10.9887 27.6733 13.8675 27.6733 17.4186V24.2444C27.6733 24.6056 27.3805 24.8984 27.0193 24.8984L9.69562 24.8984ZM10.3516 21.4844C8.39487 21.4844 6.80859 19.8981 6.80859 17.9413C6.80859 15.9845 8.39488 14.3983 10.3517 14.3983L17.7002 14.3983C21.2514 14.3983 24.1302 17.279 24.1302 20.8302C24.1302 21.1914 23.8374 21.4844 23.4762 21.4844L10.3516 21.4844Z"/>
</mask>
<path fill-rule="evenodd" clip-rule="evenodd" d="M9.69562 24.8984C6.14443 24.8984 3.26562 22.0196 3.26562 18.4685V17.4187C3.26562 13.8675 6.14443 10.9887 9.69562 10.9887L21.2434 10.9887C24.7945 10.9887 27.6733 13.8675 27.6733 17.4186V24.2444C27.6733 24.6056 27.3805 24.8984 27.0193 24.8984L9.69562 24.8984ZM10.3516 21.4844C8.39487 21.4844 6.80859 19.8981 6.80859 17.9413C6.80859 15.9845 8.39488 14.3983 10.3517 14.3983L17.7002 14.3983C21.2514 14.3983 24.1302 17.279 24.1302 20.8302C24.1302 21.1914 23.8374 21.4844 23.4762 21.4844L10.3516 21.4844Z" fill="white"/>
<path d="M3.39685 18.4685C3.39685 21.9472 6.2169 24.7672 9.69562 24.7672V25.0297C6.07196 25.0297 3.1344 22.0921 3.1344 18.4685H3.39685ZM3.39685 17.4187V18.4685H3.1344V17.4187H3.39685ZM9.69562 11.1199C6.2169 11.1199 3.39685 13.9399 3.39685 17.4187H3.1344C3.1344 13.795 6.07196 10.8574 9.69562 10.8574V11.1199ZM21.2434 11.1199L9.69562 11.1199V10.8574L21.2434 10.8574V11.1199ZM27.5421 17.4186C27.5421 13.9399 24.7221 11.1199 21.2434 11.1199V10.8574C24.867 10.8574 27.8046 13.795 27.8046 17.4186H27.5421ZM27.5421 24.2444V17.4186H27.8046V24.2444H27.5421ZM27.0193 24.7672C27.3081 24.7672 27.5421 24.5331 27.5421 24.2444H27.8046C27.8046 24.6781 27.453 25.0297 27.0193 25.0297V24.7672ZM9.69562 24.7672L27.0193 24.7672V25.0297L9.69562 25.0297V24.7672ZM6.93982 17.9413C6.93982 19.8256 8.46735 21.3532 10.3516 21.3532V21.6156C8.3224 21.6156 6.67737 19.9706 6.67737 17.9413H6.93982ZM10.3517 14.5295C8.46735 14.5295 6.93982 16.057 6.93982 17.9413H6.67737C6.67737 15.9121 8.3224 14.267 10.3517 14.267V14.5295ZM17.7002 14.5295L10.3517 14.5295V14.267L17.7002 14.267V14.5295ZM23.999 20.8302C23.999 17.3514 21.1789 14.5295 17.7002 14.5295V14.267C21.3239 14.267 24.2614 17.2066 24.2614 20.8302H23.999ZM23.4762 21.3532C23.7649 21.3532 23.999 21.1189 23.999 20.8302H24.2614C24.2614 21.2638 23.9099 21.6156 23.4762 21.6156V21.3532ZM10.3516 21.3532L23.4762 21.3532V21.6156L10.3516 21.6156V21.3532Z" fill="white" mask="url(#path-24-inside-5_468_14)"/>
</svg>
