<svg width="60" height="60" viewBox="0 0 60 60" fill="none" xmlns="http://www.w3.org/2000/svg">
<rect width="60" height="60" rx="8" fill="#0039C8"/>
<path d="M13 18C16.608 18 20.216 18 23.9333 18C24.1588 20.6661 24.3843 23.3322 24.6167 26.0791C25.9697 23.413 27.3227 20.7469 28.7167 18C31.6482 18 34.5797 18 37.6 18C37.9382 21.3326 37.9382 21.3326 38.2833 24.7326C39.4108 22.5108 40.5383 20.2891 41.7 18C45.759 18 49.818 18 54 18C52.914 21.2099 51.6893 24.0316 50.1082 26.9995C49.8675 27.4571 49.6267 27.9146 49.3787 28.386C48.6157 29.8346 47.8485 31.281 47.0812 32.7275C46.5605 33.7144 46.04 34.7015 45.5197 35.6887C44.2501 38.0979 42.975 40.504 41.7 42.9104C37.641 42.9104 33.582 42.9104 29.4 42.9104C30.3909 39.9817 31.3817 37.5304 32.8167 34.8314C32.452 35.1403 32.0873 35.4493 31.7116 35.7676C25.835 40.5358 20.5768 42.4839 13 42.9104C13 39.5778 13 36.2452 13 32.8116C13.9584 32.5061 14.9167 32.2006 15.9042 31.8859C18.0482 31.2025 19.8436 30.4502 21.8833 29.4453C18.9518 29.2232 16.0203 29.001 13 28.7721C13 25.2173 13 21.6625 13 18Z" fill="#F9F9F9"/>
</svg>
